<?xml version="1.0" encoding="UTF-8"?>
<svg version="1.1" xmlns="http://www.w3.org/2000/svg" width="1475" height="1677">
<path d="M0 0 C8.70259029 4.05020106 15.43337486 9.95855739 22 16.81640625 C22.76699219 17.61304687 23.53398438 18.4096875 24.32421875 19.23046875 C36.75734581 33.29307206 44.89233361 51.24071447 51 68.81640625 C51.27537598 69.60805176 51.55075195 70.39969727 51.83447266 71.21533203 C55.24837196 81.27182746 57.70030651 91.46313248 59.75 101.87890625 C59.94875732 102.88195801 60.14751465 103.88500977 60.35229492 104.91845703 C63.67917483 122.78065065 64.37523675 140.49496654 64.3125 158.62890625 C64.31034485 159.75224365 64.3081897 160.87558105 64.30596924 162.03295898 C64.25135101 179.81513885 63.63598434 197.20528359 61 214.81640625 C60.90289734 215.47632568 60.80579468 216.13624512 60.70574951 216.81616211 C53.96683736 262.44780444 42.74843955 308.47496572 24.59375 350.9765625 C24.31331848 351.63563599 24.03288696 352.29470947 23.74395752 352.97375488 C22.40185588 356.1128286 21.03243913 359.23276178 19.62011719 362.34130859 C16.09440436 370.38994081 15.00426681 375.60606927 18.1640625 383.85546875 C29.31917887 403.60062125 50.34391839 412.00981264 71.25073242 418.10546875 C82.93144593 421.30001057 95.01322521 423.17438231 107 424.81640625 C107 425.80640625 107 426.79640625 107 427.81640625 C89.27302597 437.04019761 70.12231036 442.27907163 50.75 446.81640625 C50.09675751 446.97028809 49.44351501 447.12416992 48.77047729 447.28271484 C37.11844013 450.0055403 37.11844013 450.0055403 32 449.81640625 C33.91400807 453.14591868 36.01446253 456.24162332 38.3112793 459.31811523 C44.76304432 468.0106884 50.00884415 477.2247447 55 486.81640625 C55.32597168 487.43563965 55.65194336 488.05487305 55.98779297 488.69287109 C71.32462669 518.21197712 77.60843964 551.82545666 77 584.81640625 C77.66 584.81640625 78.32 584.81640625 79 584.81640625 C79 588.11640625 79 591.41640625 79 594.81640625 C78.34 594.81640625 77.68 594.81640625 77 594.81640625 C77.04640625 595.83992187 77.0928125 596.8634375 77.140625 597.91796875 C79.20019107 666.10291832 48.94089208 735.16159399 19 794.81640625 C18.1332666 796.54576416 18.1332666 796.54576416 17.24902344 798.31005859 C9.92662963 812.83660437 2.022185 826.95753126 -6.29443359 840.93603516 C-7.93893122 843.71327292 -9.56098415 846.50228531 -11.17578125 849.296875 C-35.9273404 891.98289201 -65.12341906 932.19376581 -95.10107422 971.33105469 C-96.87800381 973.65673522 -98.64595954 975.98887178 -100.41015625 978.32421875 C-107.53178278 987.73405997 -114.91155353 996.89359511 -122.46191406 1005.96240234 C-124.53490076 1008.46117393 -126.57974762 1010.9824128 -128.625 1013.50390625 C-136.34041563 1022.93703965 -144.29387351 1032.15809792 -152.55078125 1041.12109375 C-154.47687339 1043.24071668 -156.36664741 1045.38004285 -158.24462891 1047.54174805 C-170.37924859 1061.41848656 -183.44701591 1074.42440771 -196.4909668 1087.43774414 C-198.96728543 1089.9083027 -201.43899692 1092.38341485 -203.90946865 1094.85981846 C-206.31090454 1097.26575978 -208.71616701 1099.66786051 -211.12109375 1102.0703125 C-212.43224403 1103.38449913 -212.43224403 1103.38449913 -213.7698822 1104.72523499 C-218.13756652 1109.07636954 -222.55830387 1113.2910807 -227.25550842 1117.28599548 C-229.08569502 1118.89158493 -230.79579679 1120.57835999 -232.5 1122.31640625 C-235.44264324 1125.30533826 -238.52355707 1128.06292923 -241.69921875 1130.80078125 C-244.50773529 1133.2612134 -247.2544368 1135.78634903 -250 1138.31640625 C-254.60775029 1142.55422753 -259.25443796 1146.73340087 -264 1150.81640625 C-264.49193848 1151.24002441 -264.98387695 1151.66364258 -265.49072266 1152.10009766 C-272.89259859 1158.47047508 -280.32514016 1164.80401931 -287.7890625 1171.1015625 C-289.93643627 1172.91410261 -292.07641027 1174.73485161 -294.2109375 1176.5625 C-300.28705962 1181.75468861 -306.45543579 1186.78586127 -312.76708984 1191.68920898 C-316.78499339 1194.82384247 -320.69387495 1198.06235833 -324.5625 1201.37890625 C-329.72736469 1205.79694998 -335.0327865 1209.99341701 -340.4453125 1214.10546875 C-343.75642027 1216.62116026 -347.03312816 1219.17930134 -350.30834961 1221.74145508 C-359.99120322 1229.31218184 -369.79700668 1236.70911361 -379.6484375 1244.05859375 C-381.83235592 1245.69109091 -384.0112069 1247.33001357 -386.1875 1248.97265625 C-399.47749189 1258.99932745 -412.97934347 1268.72182294 -426.60083008 1278.29248047 C-430.26577667 1280.87146984 -433.9140184 1283.47062022 -437.5390625 1286.10546875 C-438.68858398 1286.94078125 -438.68858398 1286.94078125 -439.86132812 1287.79296875 C-441.29166739 1288.83456179 -442.72028648 1289.87852482 -444.14648438 1290.92578125 C-449.2222771 1294.62254545 -454.41947525 1298.12311599 -459.65150452 1301.59310913 C-465.15527853 1305.24511365 -470.62975855 1308.93906314 -476.09765625 1312.64453125 C-512.26400012 1337.1359402 -512.26400012 1337.1359402 -528.58398438 1347.30371094 C-532.15556607 1349.53991952 -535.70309905 1351.81335498 -539.25317383 1354.08349609 C-566.78437317 1371.67838963 -594.68440228 1388.71931059 -622.97412109 1405.06738281 C-626.11640323 1406.88368983 -629.25555759 1408.7053258 -632.39453125 1410.52734375 C-654.41344625 1423.29014099 -676.62073128 1435.69747618 -699 1447.81640625 C-700.00611328 1448.36264648 -701.01222656 1448.90888672 -702.04882812 1449.47167969 C-717.47322872 1457.84287915 -732.99238793 1466.01237986 -748.59130859 1474.05322266 C-752.03116118 1475.83252472 -755.46374257 1477.6251651 -758.89453125 1479.421875 C-771.08657826 1485.79914676 -783.33378918 1491.98815761 -795.77734375 1497.859375 C-800.37285466 1500.03091308 -804.94280097 1502.24969136 -809.50390625 1504.4921875 C-827.69445303 1513.42390383 -846.05629052 1521.85763774 -864.61306763 1529.99981689 C-869.18216698 1532.00719027 -873.73505677 1534.0459221 -878.27734375 1536.11328125 C-952.46648885 1569.87500576 -1029.71533629 1598.18735623 -1108 1620.81640625 C-1108.72950867 1621.02763123 -1109.45901733 1621.2388562 -1110.21063232 1621.45648193 C-1155.20484722 1634.45077487 -1200.94151362 1644.47734278 -1247.1875 1651.81640625 C-1247.85271667 1651.92281433 -1248.51793335 1652.02922241 -1249.20330811 1652.13885498 C-1261.67791098 1654.1161201 -1261.67791098 1654.1161201 -1268 1653.81640625 C-1268 1654.47640625 -1268 1655.13640625 -1268 1655.81640625 C-1269.65 1655.81640625 -1271.3 1655.81640625 -1273 1655.81640625 C-1273 1655.15640625 -1273 1654.49640625 -1273 1653.81640625 C-1274.0209375 1653.8628125 -1275.041875 1653.90921875 -1276.09375 1653.95703125 C-1299.52544622 1654.67256567 -1328.15124047 1650.97976522 -1346 1634.37890625 C-1351.39736437 1628.4272893 -1353.79514953 1622.8446424 -1353.4375 1614.73046875 C-1351.36011168 1600.89357871 -1341.36015508 1588.98029865 -1332.09765625 1579.06640625 C-1330.25981616 1577.09509174 -1328.53447692 1575.07545743 -1326.8125 1573.00390625 C-1318.01743278 1562.95240085 -1307.60109526 1554.36325384 -1296.98144531 1546.32226562 C-1294.838539 1544.69369907 -1292.71260752 1543.04423395 -1290.5859375 1541.39453125 C-1265.2865688 1521.92706686 -1237.82597915 1505.65268342 -1210.125 1489.87890625 C-1185.36277126 1475.76913047 -1161.33018239 1461.01393778 -1137.75311279 1445.0057373 C-1135.2772772 1443.32610313 -1132.79647454 1441.6538445 -1130.31640625 1439.98046875 C-1119.72166838 1432.80651002 -1109.32558922 1425.37144643 -1099 1417.81640625 C-1098.22124512 1417.24776855 -1097.44249023 1416.67913086 -1096.64013672 1416.09326172 C-1085.96339414 1408.290943 -1075.39225944 1400.36201529 -1064.91650391 1392.29199219 C-1063.1274425 1390.91452885 -1061.33580198 1389.5405174 -1059.54296875 1388.16796875 C-1048.21909219 1379.49281373 -1037.01784945 1370.6795746 -1025.96826172 1361.6574707 C-1021.62305258 1358.11562611 -1017.23569087 1354.63517186 -1012.8125 1351.19140625 C-1007.11119589 1346.7460486 -1001.5797052 1342.1272004 -996.08203125 1337.43359375 C-993.25316987 1335.02144101 -990.38424878 1332.66220627 -987.5 1330.31640625 C-981.82096859 1325.69087632 -976.23407178 1320.96173581 -970.65283203 1316.21923828 C-969.02971933 1314.84163037 -967.4040696 1313.46708868 -965.77734375 1312.09375 C-949.83417583 1298.63905769 -949.83417583 1298.63905769 -934.2109375 1284.81640625 C-929.8468848 1280.86871194 -925.41165458 1277.00634954 -920.91796875 1273.20703125 C-913.83621374 1267.20588758 -906.95094463 1261.04704735 -900.19189453 1254.68408203 C-896.52453597 1251.23239381 -892.81491401 1247.85512522 -889 1244.56640625 C-884.25016636 1240.41030182 -879.640364 1236.09393177 -875 1231.81640625 C-873.95575504 1230.85544064 -872.91148424 1229.8945031 -871.8671875 1228.93359375 C-865.93789812 1223.47348923 -860.02620858 1217.99434083 -854.125 1212.50390625 C-853.51873779 1211.94147217 -852.91247559 1211.37903809 -852.2878418 1210.79956055 C-849.31792778 1208.03168704 -846.40323892 1205.22882121 -843.5546875 1202.3359375 C-841.15291636 1199.91236866 -838.68118564 1197.63418086 -836.09375 1195.41015625 C-831.67227996 1191.59355012 -827.59076771 1187.48168703 -823.5 1183.31640625 C-822.07549444 1181.86595341 -820.64842536 1180.4180136 -819.21875 1178.97265625 C-818.59935547 1178.34166016 -817.97996094 1177.71066406 -817.34179688 1177.06054688 C-815.4264288 1175.22505236 -813.48047022 1173.50284111 -811.46704102 1171.77905273 C-805.82325262 1166.870393 -800.58873744 1161.54934637 -795.30859375 1156.2578125 C-794.19350989 1155.14340407 -793.07827778 1154.02914396 -791.96290588 1152.9150238 C-789.63746238 1150.59104604 -787.31381489 1148.26529161 -784.99145508 1145.93823242 C-782.03412097 1142.97520174 -779.07231872 1140.01668455 -776.10914516 1137.05949497 C-773.80889402 1134.76287993 -771.51105769 1132.46386059 -769.21391487 1130.16413689 C-768.12354703 1129.07310819 -767.0324532 1127.98280448 -765.94058037 1126.89328194 C-760.59250083 1121.55419376 -755.32950711 1116.19468541 -750.41127014 1110.45005798 C-748.64409712 1108.4044218 -746.77245263 1106.49089754 -744.84375 1104.59765625 C-744.13089844 1103.89253906 -743.41804687 1103.18742187 -742.68359375 1102.4609375 C-741.22786458 1101.03125 -739.77213542 1099.6015625 -738.31640625 1098.171875 C-734.21055723 1094.11057407 -730.30748453 1089.95779112 -726.54101562 1085.58007812 C-723.98495656 1082.65470254 -721.19228212 1079.98802324 -718.40625 1077.28515625 C-715.77805189 1074.58869326 -713.32743004 1071.77382965 -710.86035156 1068.93066406 C-707.86311283 1065.52435338 -704.74277656 1062.23706425 -701.625 1058.94140625 C-694.21558653 1051.0725508 -686.96325898 1043.09040272 -679.87109375 1034.93359375 C-677.65517041 1032.42622329 -675.38959092 1029.96739036 -673.125 1027.50390625 C-669.00093324 1022.98736788 -665.12063135 1018.32507609 -661.28125 1013.56640625 C-658.93281032 1010.73541047 -656.49090098 1008.02257027 -654 1005.31640625 C-649.96045182 1000.92262077 -646.15320381 996.39801801 -642.40625 991.75390625 C-639.7022123 988.45287322 -636.91888768 985.22875412 -634.125 982.00390625 C-629.6153798 976.78592757 -625.30222134 971.44879536 -621.0769043 965.99902344 C-617.96122056 961.99562467 -614.73945707 958.10464256 -611.4375 954.25390625 C-607.02056788 949.09047225 -602.82495721 943.78674255 -598.71484375 938.375 C-596.74917459 935.7875899 -594.75863229 933.22133201 -592.75390625 930.6640625 C-584.28965039 919.86628156 -576.07346267 908.90902444 -568 897.81640625 C-567.4548877 897.06891113 -566.90977539 896.32141602 -566.34814453 895.55126953 C-554.21069045 878.89280522 -542.24580167 862.09284018 -531 844.81640625 C-530.42556152 843.9342041 -529.85112305 843.05200195 -529.25927734 842.14306641 C-492.45973912 785.46668091 -460.47433966 725.39924334 -432.30078125 663.984375 C-429.95344397 658.86816402 -427.57362272 653.76872068 -425.16796875 648.6796875 C-424.8385881 647.98289886 -424.50920746 647.28611023 -424.16984558 646.56820679 C-423.49529922 645.14163424 -422.82069238 643.71509029 -422.14602661 642.28857422 C-416.49793458 630.34177155 -410.94301716 618.35801674 -405.5 606.31640625 C-395.51427228 584.22949847 -385.15702124 562.31614234 -374.66137695 540.46728516 C-372.71918745 536.42318297 -370.78722942 532.37586061 -368.90234375 528.3046875 C-364.37257365 518.521186 -359.5131473 508.95608056 -354.41552734 499.45605469 C-353.43362033 497.62501318 -352.45500649 495.79220336 -351.47900391 493.95800781 C-327.37838014 448.66814534 -298.60553424 399.93179782 -255 370.81640625 C-254.39269043 370.40745117 -253.78538086 369.99849609 -253.15966797 369.57714844 C-237.49878856 359.1981916 -220.27442179 352.86678514 -202 348.81640625 C-201.2879541 348.63827393 -200.5759082 348.4601416 -199.84228516 348.27661133 C-195.74663216 347.61346875 -191.69027651 347.59353276 -187.546875 347.54296875 C-186.6215799 347.53066727 -185.69628479 347.51836578 -184.74295044 347.50569153 C-181.74527075 347.47352328 -178.74782073 347.45475551 -175.75 347.44140625 C-174.22950043 347.43356613 -174.22950043 347.43356613 -172.67828369 347.42556763 C-155.90370123 347.38546253 -140.04137815 348.4692802 -124 353.81640625 C-124.20157715 353.14174316 -124.4031543 352.46708008 -124.61083984 351.77197266 C-125.53684188 348.66313755 -126.45595387 345.55230446 -127.375 342.44140625 C-127.85066406 340.85005859 -127.85066406 340.85005859 -128.3359375 339.2265625 C-131.56267888 328.26908658 -133.34648496 318.45683642 -133.3125 307.00390625 C-133.33666992 305.34584961 -133.33666992 305.34584961 -133.36132812 303.65429688 C-133.36197266 302.58759766 -133.36261719 301.52089844 -133.36328125 300.421875 C-133.36775269 298.98557739 -133.36775269 298.98557739 -133.37231445 297.52026367 C-132.93584142 294.3504677 -131.79770045 292.4322966 -130 289.81640625 C-127.06396204 292.65391945 -124.47959331 295.62334698 -121.9375 298.81640625 C-104.56647162 320.167703 -80.04571815 345.25561697 -51.125 348.56640625 C-43.19847498 349.20196726 -36.80066105 347.5553822 -30.31640625 342.88671875 C-0.79452209 316.50122364 12.89308988 266.62069269 16 228.81640625 C16.33477248 222.77801506 16.3416973 216.73727718 16.3125 210.69140625 C16.31034485 209.88247925 16.3081897 209.07355225 16.30596924 208.2401123 C16.14996102 171.60793949 6.75268368 136.77944259 -9 103.81640625 C-9.32049316 103.13304199 -9.64098633 102.44967773 -9.97119141 101.74560547 C-14.50698992 92.09594 -19.79751155 82.98379258 -25.27001953 73.83764648 C-35.7013544 56.33829385 -44.59799265 38.61129762 -40.3515625 17.609375 C-37.93836546 10.23571738 -33.95213689 4.33779922 -27.3671875 0.13671875 C-19.31150875 -3.02200447 -8.16976283 -2.84302703 0 0 Z " fill="#7F7F7F" transform="translate(1368,8.18359375)"/>
</svg>
